<svg xmlns="http://www.w3.org/2000/svg" viewBox="0 0 469.6 291.9"><path d="M307.02 16.46c-4.5 1.17-8.5 2.34-8.88 2.57-1.63 1.01-2.26 3.93-1.19 5.56.32.46 1.07 1.04 1.71 1.27 1.04.42 1.51.36 6.56-.98l5.4-1.46.61 2.63c.32 1.46 1.77 7.67 3.19 13.85 1.39 6.18 3.71 16.19 5.08 22.27 1.39 6.08 2.58 11.28 2.67 11.58.09.39-.61.75-3.42 1.72-5.77 2.02-6.53 2.37-7.2 3.58-.7 1.33-.75 3.35-.09 4.42.44.68 2.5 8.16 2.29 8.36-.03.06-28.06 11.48-62.3 25.43-42.11 17.14-62.28 25.2-62.39 24.97-.12-.23-1.02-3.32-2-6.89-1.02-3.58-1.89-6.67-1.94-6.89-.12-.29.41-.78 2.87-2.73.35-.26 4.88-11.93 4.88-12.52 0-.68-.49-.55-2.18.52-1.48.94-1.57 1.07-3.19 5.2l-1.68 4.19-5.89 5.14c-4.76 4.16-6.04 5.1-6.67 5.04-.55-.1-1.04.16-1.74.94-1.6 1.76-1.36 2.08 1.71 2.44l1.8.2 1.89-1.66c1.04-.91 1.97-1.53 2.06-1.4.29.36 3.89 12.71 3.74 12.84-1.13 1.01-12.51 10.63-12.59 10.63-.06 0-.17-.29-.26-.65s-.64-.88-1.22-1.14c-.78-.39-1.19-.88-1.6-1.92-.44-1.14-.73-1.46-1.45-1.66-.73-.16-1.04-.52-1.45-1.56-.44-1.04-.78-1.43-1.77-1.82-.93-.39-1.31-.78-1.51-1.5-.35-1.2-.67-1.46-1.83-1.46-.73 0-1.04-.26-1.65-1.27s-.99-1.3-1.92-1.5c-.93-.16-1.31-.46-1.8-1.33-.52-.98-.75-1.11-1.83-1.11-1.13 0-1.31-.1-1.8-1.17-.52-1.07-.64-1.14-1.83-1.04-1.13.07-1.36-.07-2.06-.98-.73-.98-.9-1.04-1.94-.85-1.07.2-1.22.1-1.8-.81-.58-.88-.81-1.01-2-1.01-1.04 0-1.51-.2-2.15-.88-.75-.81-.9-.85-1.94-.55-1.07.33-1.19.29-2-.62l-.87-.98-1.31.52c-1.25.49-1.33.46-1.86-.16-.87-1.11-1.42-1.27-2.44-.78-.9.42-1.04.39-1.94-.29l-.99-.75-1.31.62c-1.28.62-1.28.62-2.12-.1-.84-.68-.87-.68-1.97-.13-1.04.52-1.16.52-2.15 0-1.07-.55-1.36-.52-2.41.33-.52.42-.73.42-1.74-.1-1.16-.59-1.19-.59-2.15.13-.9.72-.99.72-2.09.23-1.16-.49-1.16-.49-2.06.49l-.9 1.01-1.28-.49-1.31-.52-.87.98c-.81.91-.93.94-2 .62-1.04-.29-1.19-.26-1.94.55-.64.68-1.1.88-2.09.88-.99 0-1.45.2-2.09.88-.67.72-1.04.88-1.97.78-.99-.07-1.28.07-1.92.91-.61.85-.96 1.01-1.97 1.01-1.13 0-1.31.1-1.8 1.14-.49 1.01-.67 1.14-1.74 1.14-1.07 0-1.31.13-1.86 1.11-.49.94-.84 1.17-1.92 1.37-1.13.2-1.36.36-1.89 1.46-.52 1.14-.67 1.27-1.71 1.27-1.07 0-1.19.1-1.63 1.3-.38 1.04-.67 1.37-1.57 1.66-.87.29-1.19.62-1.54 1.63s-.64 1.3-1.65 1.63c-1.02.36-1.31.65-1.74 1.72-.35.91-.81 1.5-1.51 1.89-.84.42-1.04.75-1.19 1.82-.17 1.14-.32 1.3-1.36 1.66-1.04.36-1.16.49-1.16 1.5 0 1.17-.46 1.85-1.77 2.6-.67.42-.84.72-.84 1.63 0 1.14-.49 1.95-1.42 2.28-.58.2-.9 1.07-.9 2.5 0 .59-.29 1.07-.87 1.56-.73.59-.87.91-.87 2.08 0 1.24-.12 1.5-1.02 2.18-.93.72-.99.88-.81 2.02.15 1.11.06 1.37-.75 2.31-.84.98-.93 1.24-.73 2.28.17 1.07.09 1.33-.75 2.31-.9 1.04-.93 1.14-.58 2.28.35 1.17.32 1.27-.52 2.18l-.87 1.01.44 1.43.44 1.46-.93 1.07c-.93 1.07-.93 1.07-.44 2.11.46 1.01.46 1.11-.15 2.41-.58 1.24-.58 1.43-.2 2.63.38 1.17.35 1.37-.17 2.34-.55 1.07-.55 1.07.03 2.08.55 1.01.55 1.04.03 2.44-.55 1.37-.55 1.4 0 2.44.52.94.52 1.11.09 2.41-.44 1.33-.41 1.4.2 2.41.64.98.64 1.11.23 2.28-.44 1.17-.41 1.27.29 2.28.7.98.73 1.2.46 2.54-.29 1.4-.29 1.5.55 2.34.84.81.87.94.55 2.15-.29 1.2-.26 1.33.58 2.31.81.94.87 1.17.7 2.44-.17 1.33-.12 1.5.73 2.21.87.72.93.88.78 2.15-.17 1.3-.12 1.46.81 2.28.87.72 1.02 1.04 1.02 2.21 0 1.14.15 1.46.84 1.98.67.52.87.94.99 2.08.09.91.32 1.59.64 1.79 1.04.65 1.6 1.56 1.6 2.63 0 .98.15 1.2 1.25 1.89 1.04.65 1.22.91 1.31 1.95.09 1.04.23 1.24 1.19 1.69 1.16.49 1.48 1.01 1.48 2.28 0 .55.26.88 1.04 1.2.84.36 1.16.75 1.54 1.92.44 1.3.61 1.5 1.83 1.89 1.02.29 1.36.59 1.51 1.2.23 1.07.96 1.79 1.8 1.79.58 0 .84.29 1.31 1.43.49 1.3.67 1.46 1.65 1.56.93.1 1.16.29 1.74 1.5.61 1.24.78 1.37 1.8 1.37.96 0 1.25.2 1.92 1.14.61.94.96 1.14 1.83 1.14.84.03 1.19.23 1.77 1.14.64.98.9 1.11 1.94 1.14 1.04 0 1.33.16 1.97 1.11.67 1.01.87 1.11 1.77.94.87-.16 1.16-.03 1.97.85.84.91 1.1 1.04 2 .85.87-.2 1.19-.07 2.15.78 1.04.91 1.19.98 2.23.65 1.02-.33 1.19-.26 1.92.52.75.81.87.85 2 .49 1.07-.33 1.28-.26 2.29.49 1.07.78 1.16.81 2.18.33 1.02-.49 1.13-.46 1.94.2.78.65.93.68 2.15.29 1.19-.36 1.36-.33 2.18.33l.9.68 1.13-.72 1.16-.72 1.02.68 1.04.68 1.04-.68c.9-.59 1.19-.65 1.97-.33 1.28.52 1.54.49 2.5-.26.78-.62.9-.65 1.92-.16.99.46 1.13.46 2.06-.2.81-.55 1.28-.65 2.35-.49 1.16.16 1.42.1 2.12-.65.73-.78.87-.81 1.86-.46 1.02.39 1.1.36 2.03-.65.87-.94 1.1-1.04 2.06-.85.93.23 1.16.13 2.03-.81.81-.88 1.1-1.01 1.97-.85.93.16 1.13.07 1.8-.94.67-.98.93-1.11 2.03-1.11 1.13 0 1.33-.13 1.92-1.14.58-1.01.81-1.14 1.89-1.14.9 0 1.31-.16 1.54-.62.55-1.17 1.19-1.66 2.18-1.66.81 0 1.07-.2 1.63-1.24.84-1.5 1.04-1.69 2.21-1.69.84 0 .96-.13 1.28-1.3.26-1.01.55-1.37 1.1-1.5 1.6-.39 1.74-.52 2.26-1.66.38-.85.81-1.3 1.54-1.56.81-.33 1.04-.59 1.25-1.59.23-1.01.49-1.33 1.54-1.89 1.07-.62 1.25-.85 1.33-1.85.09-1.01.23-1.27 1.31-1.82 1.04-.52 1.22-.78 1.31-1.79.06-.94.26-1.24 1.16-1.79.93-.55 1.1-.85 1.28-2.05.15-1.07.41-1.59 1.16-2.24.81-.68.99-1.04.99-2.08 0-1.11.15-1.37 1.02-1.98.99-.72 1.04-.81.87-2.11-.17-1.3-.12-1.4.84-2.11.96-.68 1.04-.88 1.04-2.28 0-1.33.12-1.63.87-2.24.75-.65.84-.88.7-1.98-.17-1.04-.06-1.43.64-2.44.67-.98.81-1.5.75-2.54-.09-1.01.03-1.46.49-1.92.61-.62.75-1.79.35-2.96-.17-.46-.03-1.01.49-1.89.67-1.11.7-1.33.38-2.54-.32-1.14-.29-1.43.26-2.41.58-1.04.58-1.14.09-2.24-.46-1.14-.46-1.2.12-2.37.61-1.24.61-1.24.06-2.47-.84-1.79-.41-2.5 1.51-2.5 1.16 0 1.45.1 1.33.46-.09.26.09.72.41 1.01.35.39.49.81.38 1.33s0 .81.44 1.07c.46.29.55.59.44 1.27-.15.75-.03.98.55 1.27.55.29.67.55.58 1.17-.12.62 0 .88.44 1.01.38.13.64.55.7 1.11.06.59.29.91.81 1.04.46.13.75.46.81.91.09.55.29.72.93.72.64 0 .84.2.99.85.17.72.32.81.93.65.55-.16.78-.03 1.04.62s.49.81.99.68c.46-.13.78 0 1.1.49.29.49.58.62 1.04.46.41-.13.81-.03 1.19.36.46.46.7.49 1.28.2.61-.33.75-.29 1.04.29.29.62.35.62 1.02.13.61-.46.78-.46 1.36-.03.55.42.73.42 1.19.03.41-.36.7-.36 1.1-.13.44.26.7.23 1.1-.2.41-.42.67-.46 1.13-.2.49.33.67.23 1.04-.42.41-.68.61-.75 1.16-.52.55.23.75.16 1.13-.46.32-.55.61-.72 1.13-.62.55.13.78 0 .93-.55.15-.55-.03-1.01-.9-1.98l-1.1-1.27-.96.65c-2.73 1.82-7.49 2.47-10.8 1.46-3.66-1.07-6.96-3.77-9.08-7.45-3.13-5.43-3.13-12.84 0-18.27 4.29-7.41 12.62-9.98 19.76-6.11 2.15 1.17 5.46 4.91 6.5 7.35 2.15 5.01 2.21 11.12.17 15.61l-.61 1.33 1.02 1.14c.81.91 1.16 1.07 1.77.91.64-.16.73-.36.58-.98-.12-.59 0-.88.46-1.17s.58-.59.46-1.14c-.12-.55 0-.91.46-1.27.52-.42.58-.62.29-1.3-.26-.65-.2-.88.23-1.33.49-.52.52-.65.15-1.24-.38-.59-.38-.75.06-1.27.41-.49.41-.72.12-1.37-.32-.62-.29-.88.03-1.46.32-.62.32-.78-.15-1.17-.46-.36-.49-.55-.2-1.17.32-.62.26-.78-.26-1.27-.55-.42-.58-.65-.35-1.37.26-.75.2-.91-.29-1.07-.49-.2-.58-.42-.44-1.17.15-.81.03-1.01-.55-1.33-.41-.2-.73-.46-.73-.55.03-.29 95.27-77.58 95.59-77.58.15 0 .7 1.76 1.22 3.9.52 2.15 1.86 7.64 2.99 12.19 1.1 4.55 1.94 8.39 1.89 8.52-.09.13-.73.26-1.45.26-1.16 0-1.36.1-1.89 1.14-.55 1.01-.75 1.14-1.8 1.14-1.07 0-1.31.16-1.86 1.11-.52.91-.9 1.17-1.94 1.33-1.13.2-1.33.36-1.77 1.46-.46 1.14-.64 1.27-1.71 1.37-1.04.1-1.25.23-1.68 1.3-.38.85-.78 1.27-1.57 1.56-.81.33-1.16.68-1.48 1.63-.38 1.04-.64 1.3-1.71 1.63-1.13.36-1.31.55-1.63 1.69-.23.94-.61 1.43-1.36 1.85-.75.46-1.1.91-1.33 1.82-.23.94-.49 1.33-1.16 1.56-1.31.49-1.6.85-1.6 2.05 0 .91-.17 1.24-.93 1.76-1.48.98-1.68 1.24-1.68 2.41 0 .91-.17 1.24-1.02 1.79-.9.59-1.02.81-1.02 1.95 0 1.07-.17 1.43-1.04 2.24-.93.88-1.04 1.14-.93 2.18.12 1.04 0 1.3-.84 2.02s-.96 1.01-.96 2.28c0 1.17-.15 1.59-.73 2.11-.61.52-.73.91-.73 2.34 0 1.4-.12 1.85-.75 2.47-.61.68-.7.98-.52 2.05.15 1.11.06 1.4-.64 2.21-.81.98-.81.98-.38 2.37.44 1.4.44 1.4-.41 2.6-.84 1.17-.84 1.24-.44 2.24.41.98.41 1.11-.23 2.24-.64 1.14-.67 1.24-.23 2.41.41 1.11.41 1.3-.06 2.47s-.46 1.3.03 2.31c.46 1.01.46 1.14.03 2.11-.58 1.27-.58 1.82 0 2.83.41.72.41.94.03 2.21-.38 1.3-.38 1.43.23 2.44.64 1.04.64 1.14.23 2.34-.44 1.2-.41 1.27.29 2.34.7 1.01.73 1.2.44 2.5-.32 1.37-.29 1.46.44 2.18.81.78.96 1.53.52 2.83-.23.68-.15.94.58 1.72.7.75.84 1.17.84 2.44 0 1.3.12 1.63.78 2.18.7.55.78.85.73 2.21-.09 1.46 0 1.66.81 2.24.73.55.87.85.87 2.02s.15 1.5 1.02 2.24c.84.72 1.02 1.07 1.02 2.08 0 1.07.15 1.33 1.02 1.95.87.59 1.02.88 1.02 1.89 0 1.53.23 1.89 1.54 2.5.96.42 1.07.62 1.07 1.63 0 1.04.12 1.2 1.28 1.85 1.1.59 1.33.88 1.48 1.89.15 1.04.35 1.3 1.28 1.69.96.42 1.16.72 1.42 1.95.32 1.37.41 1.5 1.57 1.76 1.04.26 1.33.49 1.77 1.53.52 1.24.61 1.33 1.97 1.66.55.13.84.49 1.1 1.5.32 1.24.41 1.3 1.51 1.3 1.07 0 1.19.1 1.77 1.46.58 1.33.73 1.46 1.71 1.46 1.1 0 1.74.46 2.29 1.66.23.46.61.62 1.42.62.93 0 1.25.2 1.89 1.14.67.98.96 1.14 1.97 1.14 1.02 0 1.33.16 1.97 1.04.67.91.96 1.04 1.92.98.93-.1 1.28.07 1.97.88.75.88.99.98 1.97.78 1.02-.16 1.25-.07 2.12.88.93 1.01 1.02 1.04 2 .65.96-.36 1.13-.33 1.94.49.64.55 1.1.78 1.54.65.32-.13.84-.29 1.13-.39s1.04.23 1.68.68c1.07.81 1.19.85 2.18.36.99-.46 1.1-.46 1.92.2.78.62.96.65 2.12.29s1.36-.33 2.29.29l.99.68 1.1-.72 1.07-.72 1.07.68 1.04.68.93-.65c.87-.59 1.07-.62 2.23-.26s1.36.33 2.21-.26c.87-.62 1.02-.62 2.03-.16 1.04.46 1.13.42 1.97-.26.73-.59 1.1-.68 2.23-.49 1.25.16 1.48.1 2.21-.68.75-.78.87-.85 1.89-.49s1.13.33 2.03-.62c.84-.94 1.02-1.01 2.23-.81 1.22.23 1.33.16 1.97-.78.55-.88.81-1.01 1.74-.91.9.07 1.28-.13 2.06-.98.75-.81 1.22-1.04 2.09-1.04 1.02 0 1.25-.16 1.83-1.14.58-1.01.78-1.14 1.89-1.14 1.07 0 1.31-.13 1.89-1.14.55-.98.81-1.14 1.74-1.14.96-.03 1.16-.16 1.86-1.46s.9-1.46 1.83-1.46c.96 0 1.07-.13 1.6-1.46.46-1.24.7-1.46 1.36-1.46 1.1 0 1.39-.29 1.92-1.66.35-.94.64-1.24 1.45-1.4.87-.2 1.04-.39 1.36-1.63.29-1.17.55-1.5 1.63-2.08.84-.49 1.28-.91 1.28-1.33 0-1.17.35-1.69 1.48-2.21.9-.39 1.13-.68 1.13-1.3 0-1.17.44-1.92 1.42-2.34.84-.42 1.19-1.14 1.19-2.54 0-.49.35-1.01 1.02-1.46.9-.65 1.02-.91 1.02-2.11 0-1.24.12-1.46 1.04-2.11.96-.72 1.02-.85.87-2.08-.15-1.27-.09-1.4.96-2.21 1.04-.85 1.1-.94.99-2.28-.15-1.27-.09-1.46.78-2.15.84-.65.9-.85.73-1.98-.17-1.07-.06-1.4.7-2.47.75-1.07.87-1.43.7-2.47-.15-1.04-.06-1.37.58-2.11.7-.81.73-.98.41-2.24-.29-1.24-.23-1.46.44-2.6.7-1.2.73-1.33.32-2.47-.41-1.11-.38-1.24.2-2.18.64-1.01.64-1.04.15-2.28-.49-1.24-.49-1.3.12-2.44.61-1.17.61-1.17.06-2.37s-.55-1.24 0-2.44c.58-1.24.58-1.24-.03-2.15-.7-1.14-.73-1.4-.12-2.7.46-.98.44-1.11-.17-2.37-.64-1.3-.64-1.37-.17-2.41.49-1.01.46-1.07-.26-2.02-.73-1.01-.84-1.72-.46-3.22.17-.62.03-1.07-.49-1.85-.58-.88-.67-1.3-.49-2.24.17-1.04.09-1.33-.75-2.28-.81-.94-.9-1.2-.73-2.28.2-1.04.12-1.3-.73-2.28-.81-.94-.9-1.24-.75-2.31.17-1.14.09-1.3-.81-2.05-.87-.72-.99-1.01-1.02-2.18 0-1.24-.12-1.5-1.02-2.11-.9-.68-1.02-.88-1.02-2.24 0-1.37-.09-1.56-.87-1.92-.87-.39-.96-.59-1.31-2.5-.12-.59-.41-1.14-.7-1.24-1.02-.36-1.77-1.46-1.77-2.57 0-.98-.15-1.17-1.1-1.59-.9-.39-1.19-.75-1.45-1.76s-.55-1.33-1.36-1.66c-.75-.33-1.13-.78-1.57-1.85-.44-1.11-.75-1.43-1.48-1.63-.73-.2-1.02-.52-1.45-1.63-.46-1.2-.73-1.5-1.68-1.79-.96-.26-1.25-.55-1.63-1.63-.44-1.2-.55-1.3-1.6-1.3-1.04 0-1.22-.13-1.8-1.27-.52-1.07-.81-1.3-1.83-1.46-.93-.16-1.33-.46-1.86-1.33-.58-1.01-.78-1.14-1.89-1.14s-1.28-.1-1.77-1.14c-.52-1.04-.67-1.14-1.94-1.14-1.22 0-1.45-.13-2-.98-.58-.91-.73-.98-1.86-.81-1.1.2-1.25.13-1.86-.78-.58-.88-.84-1.01-2-1.01-1.07 0-1.54-.2-2.18-.88-.75-.81-.9-.85-1.94-.55-1.07.33-1.19.29-2-.62l-.87-.98-1.31.52-1.28.49-.9-1.01c-.9-1.01-.93-1.01-1.89-.49-.96.52-1.04.49-2.09-.23-1.1-.72-1.13-.72-2.29-.13-1.16.55-1.19.55-2.15-.1-.93-.65-1.02-.65-2.06-.1-1.02.52-1.19.52-2 .03-1.16-.68-1.39-.65-2.41.13l-.81.68-1.19-.68-1.19-.68-.9.81c-.87.75-.96.78-2.03.29-1.07-.49-1.1-.46-2.12.49-1.04.94-1.04.94-2.32.42-1.28-.52-1.28-.52-2.15.42-.73.78-.99.88-1.97.72-.96-.2-1.22-.1-1.83.59-.41.49-1.02.85-1.45.85-.75 0-.81-.1-2.44-6.93-.93-3.77-2.23-9.23-2.93-12.1-.7-2.86-2.21-9.07-3.34-13.82s-2.58-10.73-3.22-13.3c-.61-2.57-1.1-4.71-1.07-4.75.06-.07 2.7-1.11 5.89-2.34 3.19-1.24 5.77-2.37 5.75-2.54 0-.2-1.1-4.88-2.41-10.4-8.65-36.81-11.87-50.63-12.19-52.28-.17-1.01-.41-1.82-.52-1.82-.17-.01-3.94.97-8.41 2.17zm8.85 84.15c.17.68.44 1.95.64 2.83l.35 1.63-.96.81c-.52.46-22.63 18.4-49.16 39.9-40.22 32.65-48.23 39.02-48.4 38.53-.12-.42-.41-.55-.87-.46-.52.13-.78-.03-1.04-.68-.29-.68-.46-.81-1.19-.65-.7.16-.87.07-1.04-.49-.15-.55-.35-.65-.9-.49-.46.13-.9.03-1.28-.36-.44-.42-.64-.46-1.16-.16-.52.29-.73.26-1.19-.2-.49-.49-.7-.52-1.16-.2-.44.33-.67.33-1.1 0-.46-.33-.67-.29-1.13.16-.46.49-.58.49-1.16.03-.61-.46-.7-.46-1.16.2-.46.62-.55.65-.87.23-.49-.68-11.61-31.25-11.4-31.38.38-.2 123.51-50.43 123.71-50.43.09-.02.33.53.47 1.18zM126.7 151.63c9.98 1.92 19.12 7.15 26.2 14.99 1.39 1.56 2.52 2.93 2.52 3.06 0 .13-6.44 5.76-14.28 12.52-7.86 6.73-14.54 12.49-14.8 12.75-.44.39-.58.39-1.33-.2-.46-.39-1.51-.98-2.32-1.33-5.92-2.63-12.68.59-15.5 7.35-1.74 4.16-1.39 9.36.93 13.36 1.31 2.28 2.73 3.64 5.19 5.04 1.57.85 2.26 1.04 4.5 1.14 4.09.2 7.23-1.24 9.87-4.49 1.13-1.4 2.79-4.94 2.79-5.95 0-.33.23-.55.55-.55.29 0 8.76-.59 18.78-1.3 10.04-.72 18.28-1.3 18.37-1.3.2 0-.29 6.24-.73 9.1-3.11 20.26-15.84 36.9-33.2 43.38-5.8 2.15-8.39 2.6-15.38 2.63-7.28 0-9.9-.42-15.82-2.6-18.43-6.73-31.57-24.78-33.81-46.4-.49-4.71-.23-12.39.58-16.97 4.24-24.03 21.68-41.91 43.67-44.74 3.15-.4 9.85-.14 13.22.51zm231.02-.52c6.53.75 12.3 2.63 17.96 5.85 14.07 8.03 23.74 22.89 26.41 40.48.55 3.71.64 5.01.49 10.57-.23 9.17-1.6 15.57-4.96 23.15-8.56 19.12-25.45 30.82-44.54 30.82-13.81 0-26.18-5.95-35.81-17.23-12.91-15.09-17.06-36.71-10.91-56.77 3.51-11.51 10.65-21.62 19.99-28.39 1.51-1.07 2.87-1.98 3.05-1.98.15 0 2.81 10.34 5.86 23.02 4.93 20.19 5.57 23.18 5.43 24.61-.49 4.68 1.77 9.95 5.57 12.84 3.34 2.6 8.36 3.02 12.1 1.07 2.58-1.37 4.88-3.93 6.09-6.83.75-1.85.93-2.7 1.02-5.17.15-3.64-.55-6.41-2.26-8.94-3.71-5.53-10.21-7.28-15.7-4.16l-1.68.94-.44-1.69c-2-7.93-9.49-39.05-9.4-39.12.06-.07 1.22-.49 2.55-.91 6.73-2.16 12.88-2.88 19.18-2.16zm-169.27 10.57c1.45 3.93 3.92 10.7 5.51 15.02 2.47 6.76 2.81 7.9 2.35 7.9-.32 0-.61.29-.73.78-.12.55-.41.85-.93.91-.61.07-.81.29-.87.98-.06.62-.29.91-.73.98s-.67.36-.73.98c-.06.52-.32.98-.67 1.07-.38.13-.55.49-.55 1.14 0 .65-.17 1.01-.58 1.14-.44.16-.52.39-.41 1.14.15.72.06 1.01-.44 1.27-.52.33-.55.49-.26 1.17.17.46.26.88.2.94-.06.07-1.07.2-2.26.33l-2.12.2.17-.81c.09-.46.26-1.17.35-1.66.15-.59 0-1.04-.49-1.63-.61-.72-.64-.94-.38-2.37.26-1.46.23-1.66-.41-2.5-.58-.75-.67-1.14-.55-2.24.17-1.2.09-1.46-.7-2.31-.78-.85-.87-1.11-.73-2.28.15-1.17.06-1.43-.7-2.24-.7-.75-.87-1.2-.87-2.34 0-1.17-.15-1.5-.87-2.11-.73-.59-.87-.94-.87-2.08 0-1.24-.12-1.46-1.02-2.08-.93-.65-1.02-.85-1.02-2.24 0-1.43-.06-1.56-.99-2.05-.81-.46-.99-.75-1.16-1.89-.15-1.14-.09-1.46.32-1.79.29-.23 2.67-2.31 5.31-4.65 2.64-2.31 4.88-4.13 4.99-4 .14.06 1.42 3.38 2.84 7.32zm-27.57 16.03c1.33 2.31 3.4 7.32 4.44 10.8.81 2.76 2.35 10.08 2.15 10.34-.17.23-35.55 2.76-36.54 2.6-.58-.07 2.26-2.63 13.99-12.68 8.1-6.89 14.8-12.58 14.89-12.58.11-.05.61.64 1.07 1.52z"/><path d="M196.63 101.55c-.55.26-2.26 1.01-3.77 1.66-5.14 2.15-10.24 5.27-18.89 11.51-8.94 6.44-14.6 9.82-20.11 11.97-2.99 1.17-3.31 1.43-3.86 2.89-.38 1.01-.35 1.24.29 2.8l.73 1.72 2.26.39c3.71.62 9.92 1.01 13.03.81 4.38-.29 5.66-1.37 9.14-7.61 1.8-3.19 3.11-4.84 6.01-7.54 4.24-3.87 12.39-9.14 19.09-12.29 3.02-1.43 3.13-1.56 2.93-2.7-.55-3.15-4.03-4.97-6.85-3.61zm1.13 88.15c-2.26 2.37-2.26 2.34-.23 5.04 2.99 4 3.69 6.24 2.76 8.78-.49 1.3-2.67 4.65-3.77 5.76-.41.46-.75.98-.75 1.17 0 .46 3.19 4.06 3.63 4.06.17 0 .78-.52 1.33-1.17 1.63-1.89 4.7-4.06 5.98-4.26 2.64-.39 4.82 1.37 12.57 10.11l5.08 5.72h3.83c2.12 0 3.86-.03 3.86-.1 0-.03-3.63-4.16-8.1-9.17-6.62-7.48-8.21-9.43-8.88-11.02-1.51-3.48-.93-5.82 2.5-10.05l1.74-2.18-.78-1.14c-.44-.65-1.28-1.63-1.92-2.18l-1.13-1.01-1.22 1.3c-5.28 5.59-7.89 5.76-12.83.68-1.02-1.04-1.92-1.89-2-1.89-.13.03-.88.71-1.67 1.55zm11.23 7.77c1.1.59 2.15 2.47 2.15 3.87 0 2.28-1.74 4.39-3.63 4.39-2 0-3.92-2.15-3.92-4.42 0-1.33 1.07-3.09 2.32-3.77 1.26-.72 1.84-.72 3.08-.07z"/><path d="M206.01 198.42c-.49.23-1.13.91-1.39 1.5-1.31 2.8 1.63 6.18 4.12 4.71.87-.49 1.83-2.21 1.83-3.28 0-.94-.87-2.41-1.74-2.93-1.03-.59-1.61-.59-2.82 0zm14.1 28.09c-.73.85-.84 1.2-.84 2.8 0 2.28.58 3.54 1.77 4.03 1.02.39 18.89.52 20.55.16 1.36-.33 1.92-1.46 1.92-4.06 0-1.89-.12-2.31-.7-3.02l-.7-.85h-21.15l-.85.94zm13.46 1.01c2.41 2.99-1.33 7.06-4.06 4.42-.67-.65-.81-1.04-.81-2.24 0-3.19 2.96-4.52 4.87-2.18zm-7.05 1.14c.55.75.12 2.11-.67 2.11-1.28 0-1.86-1.59-.84-2.24.7-.46 1.11-.43 1.51.13zm11.44.03c.55.59.55.65.17 1.46-.52 1.07-2.03.59-2.03-.68 0-.62.55-1.3 1.04-1.3.21 0 .58.23.82.52zm-14.8.42c.09.13-.03.55-.26.88-.38.59-.44.59-.9.07-.26-.29-.38-.68-.29-.88.23-.43 1.24-.49 1.45-.07zm17.87.33c0 .88-.55 1.17-1.07.59-.52-.59-.26-1.2.52-1.2.35-.01.55.22.55.61z"/><path d="M230.29 228.62c-.44.65-.26 1.82.35 2.28.73.52 2.09-.13 2.21-1.04.15-1.01-.44-1.69-1.39-1.69-.44 0-.96.23-1.17.45z"/></svg>