<svg xmlns="http://www.w3.org/2000/svg" viewBox="0 0 48.4 35.2"><path d="M11 0c3.1 0 6 1.3 8 3.6 1.1 1.2 1.9 2.6 2.5 4.1.6 1.6.9 3.2.9 4.9-.1 3.7-1.3 7.4-3.4 10.5-2.3 3.6-5.4 6.7-9 9-3.2 2.1-5.7 3.2-7.5 3.2-.7 0-1.3-.2-1.8-.7-.4-.5-.7-1.2-.7-1.8 0-1.1.7-2 2.1-2.7 2.7-1.3 5.1-3 7.2-5.1 1.5-1.6 2.2-2.7 2.2-3.4s-.5-1.1-1.6-1.2l-.7-.1-.8-.1C6.1 19.9 4 18.7 2.6 17 1.1 15.1.3 12.7.4 10.3c0-2.6.9-5.1 2.7-7C5.1 1.1 8-.1 11 0zm26 0c3.1 0 6 1.3 8 3.6 1.1 1.2 1.9 2.6 2.5 4.1.6 1.6.9 3.2.9 4.9-.1 3.7-1.3 7.4-3.4 10.5-2.3 3.6-5.4 6.7-9 9-3.2 2.1-5.7 3.2-7.5 3.2-.7 0-1.3-.2-1.8-.7-.5-.4-.7-1.1-.7-1.7 0-1.1.7-2 2.1-2.7 2.7-1.3 5.1-3 7.2-5.1 1.5-1.6 2.2-2.7 2.2-3.4s-.5-1.1-1.6-1.2l-.7-.1-.8-.1c-2.3-.3-4.3-1.4-5.8-3.2-1.5-1.9-2.3-4.3-2.2-6.7 0-2.6.9-5.1 2.7-7C31.1 1.1 34-.1 37 0z" fill="#fff"/></svg>