<svg xmlns="http://www.w3.org/2000/svg" viewBox="0 0 324.3 355.3"><path d="M206.3 81.1c13.8 0 25.1-11.7 25.1-26s-11.3-26-25.1-26-25.1 11.7-25.1 26 11.3 26 25.1 26zM74.4 165.8c-35.2 0-62.8 28.7-62.8 65.1S39.3 296 74.4 296s62.8-28.7 62.8-65.1-27.6-65.1-62.8-65.1zm0 110.7c-23.9 0-43.9-20.8-43.9-45.6s20.1-45.6 43.9-45.6 43.9 20.8 43.9 45.6-20 45.6-43.9 45.6zm72.9-130.3l30.1-31.3 10 10.4c16.3 16.9 37.7 27.4 64 27.4v-26c-18.8 0-33.9-7.8-45.2-19.5l-23.9-24.7c-6.3-5.2-12.6-7.8-20.1-7.8-7.5 0-13.8 2.6-17.6 7.8L109.4 119c-5 5.2-7.5 11.7-7.5 18.2 0 7.8 2.5 14.3 7.5 18.2l40.2 36.5V257h25.1v-80.8l-27.4-30zm102.9 19.6c-35.2 0-62.8 28.7-62.8 65.1S215 296 250.2 296s62.8-28.7 62.8-65.1-27.6-65.1-62.8-65.1zm0 110.7c-23.9 0-43.9-20.8-43.9-45.6s20.1-45.6 43.9-45.6c23.9 0 43.9 20.8 43.9 45.6s-20 45.6-43.9 45.6z" fill="#fff"/></svg>