<svg xmlns="http://www.w3.org/2000/svg" viewBox="0 0 324.3 355.3"><path d="M254.5 129.1h-11.6l-27-85.6c-2.4-7.9-8.9-13-16.1-13h-39.3v19.7h39.3l25 78.9h-85.6l-6.3-19.7h27.7V89.7H92.1v19.7h22.6l25 78.9h-14.2c-4.3-35.7-31.1-61.9-64.1-58.9C33.4 132 10 158.2 7 190.5c-3.8 42.2 23.8 76.7 59.5 76.7 30.6 0 54.9-25.4 59-59.1h70.1c4.3 35.7 31.3 61.9 64.1 58.9 28-2.6 51.4-28.8 54.4-61.1 3.6-42.3-23.9-76.8-59.6-76.8zM108.3 208c-3.9 22.7-20.9 39.4-41.9 39.4-23.9 0-42.7-21.7-42.7-49.3s18.8-49.3 42.7-49.3c21 0 38.1 16.8 41.9 39.4H57.9V208h50.4zm87.2-19.7h-37.8l-12.5-39.4h67c-9 10.2-14.8 24-16.7 39.4zm59 59.1c-23.9 0-42.7-21.7-42.7-49.3 0-18.5 8.5-34.1 21.2-42.6l17.6 55.8 16.1-6.7-17.4-55.2c1.9-.2 3.6-.6 5.3-.6 23.9 0 42.7 21.7 42.7 49.3s-18.9 49.3-42.8 49.3zm-102.6 59.2h-42.7L169 346v-19.7h42.8l-59.9-39.4z"/></svg>