<svg xmlns="http://www.w3.org/2000/svg" viewBox="0 0 324.3 355.3"><path d="M242.3 130.6L216 44.1c-2.3-8-8.7-13.1-15.7-13.1H162v19.9h38.3l24.3 79.7h-83.5l-6.2-19.9h27v-20H95.3v19.9h22l24.3 79.7h-13.8c-4.2-36-30.3-62.5-62.5-59.5-27.3 2.6-50.2 29.1-53 61.7-3.7 42.6 23.2 77.5 58 77.5 29.8 0 53.5-25.7 57.5-59.7h68.3c4.2 36 30.5 62.5 62.5 59.5 27.3-2.6 50.2-29.1 53-61.7 3.7-42.6-23.2-77.5-58-77.5h-11.3zm-95.1 19.9h65.3c-8.8 10.4-14.7 24.3-16.3 39.8h-36.8l-12.2-39.8zm-76.9 99.6c-23.3 0-41.7-21.9-41.7-49.8s18.3-49.8 41.7-49.8c20.5 0 37.2 16.9 40.8 39.8H62v19.9h49.2c-3.7 22.9-20.4 39.9-40.9 39.9zm183.4 0c-23.3 0-41.7-21.9-41.7-49.8 0-18.7 8.3-34.5 20.7-43l17.2 56.4 15.7-6.8-17-55.8c1.8-.2 3.5-.6 5.2-.6 23.3 0 41.7 21.9 41.7 49.8s-18.5 49.8-41.8 49.8z"/></svg>