<svg version="1.1" id="OBJECTS" xmlns="http://www.w3.org/2000/svg" x="0" y="0" viewBox="0 0 369.1 230" xml:space="preserve"><style>.st0{fill:#d40000}</style><text transform="matrix(.682 0 0 1 9.709 216.758)" class="st0" font-size="52.51" font-family="Arial-Black">LEFRIIK MIXTAPE</text><path d="M236.6 113.6v20.3c0 3.7-3.3 6.8-7.2 6.8h-7.2v-27.1h14.4m-87 0v27.1h-7.2c-4 0-7.2-3-7.2-6.8v-20.3h14.4m36.3-88c-36 0-65.2 27.3-65.2 60.9v47.4c0 11.2 9.7 20.3 21.7 20.3h21.7V100h-29V86.5c0-26.2 22.7-47.4 50.7-47.4s50.7 21.2 50.7 47.4V100h-29v54.2h21.7c12 0 21.7-9.1 21.7-20.3V86.5c.2-33.7-29-60.9-65-60.9z" fill="#fff"/><path class="st0" d="M185.6 50.4c13.9 0 26.3 7.4 32.4 19.2-6.1 11.8-18.5 19.2-32.4 19.2s-26.3-7.4-32.4-19.2c6.1-11.7 18.5-19.2 32.4-19.2m0-7c-18.3 0-34 10.9-40.4 26.2 6.3 15.3 22 26.2 40.4 26.2s34-10.9 40.4-26.2c-6.4-15.3-22.1-26.2-40.4-26.2zm0 17.5c5.1 0 9.2 3.9 9.2 8.7s-4.1 8.7-9.2 8.7-9.2-3.9-9.2-8.7 4.1-8.7 9.2-8.7m0-7c-9.1 0-16.5 7.1-16.5 15.7s7.4 15.7 16.5 15.7 16.5-7.1 16.5-15.7-7.4-15.7-16.5-15.7z"/></svg>